<?xml version="1.0" encoding="utf-8"?>
<!-- Generator: Adobe Illustrator 25.2.1, SVG Export Plug-In . SVG Version: 6.00 Build 0)  -->
<svg version="1.1" id="レイヤー_1" xmlns="http://www.w3.org/2000/svg" xmlns:xlink="http://www.w3.org/1999/xlink" x="0px"
	 y="0px" viewBox="0 0 64.4 64.4" style="enable-background:new 0 0 64.4 64.4;" xml:space="preserve">
<style type="text/css">
	.st0{fill:#D90060;}
</style>
<path class="st0" d="M46.9,32.2l14.7-14.7c3.7-3.7,3.7-9.8,0-13.5l-1.2-1.2c-3.7-3.7-9.8-3.7-13.5,0L32.2,17.5L17.5,2.8
	C13.8-0.9,7.7-0.9,4,2.8L2.8,4c-3.7,3.7-3.7,9.8,0,13.5l14.7,14.7L2.8,46.9c-3.7,3.7-3.7,9.8,0,13.5L4,61.6c3.7,3.7,9.8,3.7,13.5,0
	l14.7-14.7l14.7,14.7c3.7,3.7,9.8,3.7,13.5,0l1.2-1.2c3.7-3.7,3.7-9.8,0-13.5L46.9,32.2z"/>
</svg>
