<?xml version="1.0" encoding="utf-8"?>
<!-- Generator: Adobe Illustrator 25.2.1, SVG Export Plug-In . SVG Version: 6.00 Build 0)  -->
<svg version="1.1" id="レイヤー_1" xmlns="http://www.w3.org/2000/svg" xmlns:xlink="http://www.w3.org/1999/xlink" x="0px"
	 y="0px" viewBox="0 0 729.3 114.5" style="enable-background:new 0 0 729.3 114.5;" xml:space="preserve">
<style type="text/css">
	.st0{fill:#D90060;}
	.st1{fill:#FFFFFF;}
</style>
<path class="st0" d="M684.1,114.5H45.2C20.2,114.5,0,94.3,0,69.3l0-24.1C0,20.2,20.2,0,45.2,0l638.9,0c25,0,45.2,20.2,45.2,45.2
	v24.1C729.3,94.3,709.1,114.5,684.1,114.5z"/>
<g>
	<g>
		<path class="st1" d="M251.1,77.6c0-0.8,0-1.7,0-2.6h-22.8c-2,0-4.8,0.2-6.5,0.3v-7.2c1.8,0.2,4,0.3,6.2,0.3h23.1V47.8h-22.5
			c-2.1,0-4.8,0.1-6.2,0.2v-7c1.9,0.2,4.5,0.3,6.2,0.3h25.2c1.4,0,3.5,0,4.4-0.1c0,1.2-0.1,3.2-0.1,4.6v25.9c0,1.8,0.1,4.4,0.2,5.9
			H251.1z"/>
		<path class="st1" d="M279.6,52.8c5.9-1.4,12.9-3.6,17.3-5.6c1.6-0.6,3.1-1.3,4.8-2.3c-0.9-1.1-1.5-2.5-1.5-4c0-3.3,2.7-6,6-6
			c3.3,0,6,2.7,6,6c0,3.3-2.7,6-6,6c-1.2,0-2.3-0.4-3.2-0.9l2,4.9c-2,0.8-4.2,1.8-5.9,2.4c-5.1,2-13.1,4.5-19.6,6.1v9.3
			c0,2.2,1,2.7,3.3,3.2c1.5,0.2,3.6,0.3,5.8,0.3c5.2,0,13.3-0.6,17.4-1.8v7.3c-4.7,0.7-12.3,1-17.8,1c-3.3,0-6.3-0.2-8.4-0.6
			c-4.4-0.8-6.9-3.2-6.9-7.5V43.4c0-1.1-0.1-3.7-0.4-5.2h7.4c-0.2,1.6-0.4,3.8-0.4,5.2V52.8z M309.1,41c0-1.6-1.3-2.9-2.9-2.9
			c-1.6,0-2.9,1.3-2.9,2.9s1.3,2.9,2.9,2.9C307.8,43.9,309.1,42.6,309.1,41z"/>
		<path class="st1" d="M319.3,53.4c1.8,0.1,5.5,0.3,8.1,0.3h26.9c2.3,0,4.6-0.2,5.9-0.3v7.9c-1.2-0.1-3.8-0.2-5.9-0.2h-26.9
			c-2.9,0-6.2,0.1-8.1,0.2V53.4z"/>
		<path class="st1" d="M409.9,51.6c-2,6.5-5,12.3-8.6,17.2c1.5,3.6,3.1,5.7,4.7,5.7c1.2,0,1.8-2.5,2.1-8.8c1.3,1.4,3.5,2.7,5,3.4
			c-1,9.2-3,11.5-7.6,11.5c-3.5,0-6.2-2.5-8.5-6.6c-2.5,2.7-5.4,4.9-8.5,6.8c-0.9-1.3-3.1-3.8-4.3-4.9c3.9-2.1,7.3-4.9,10.2-8.1
			c-1.7-5.6-2.8-12.7-3.5-20.2h-14.5v5.4h12.4c0,0,0,1.5,0,2.2c-0.2,10.5-0.5,15-1.6,16.4c-1,1.3-2,1.8-3.5,2
			c-1.3,0.2-3.5,0.2-5.8,0.2c-0.1-1.8-0.8-4.1-1.7-5.6c1.8,0.2,3.5,0.2,4.3,0.2c0.7,0,1.1-0.1,1.5-0.6c0.5-0.7,0.7-3.1,0.8-9.4h-6.5
			c-0.2,7.3-1.2,17.1-5.4,23.2c-1-1.1-3.7-3.3-5.1-4c3.8-6,4.2-14.7,4.2-21.2V41.6h20.4c-0.1-2.4-0.2-4.9-0.2-7.4h6.3
			c0,2.5,0,5,0.1,7.4h7.7c-1.8-1.5-4.3-3.1-6.4-4.4l3.6-3.6c2.8,1.4,6.4,3.7,8.2,5.4l-2.4,2.5h5.2v5.9h-15.5c0.4,5,1.1,9.7,2,13.7
			c2-3.4,3.6-7.1,4.8-11.1L409.9,51.6z"/>
		<path class="st1" d="M436.8,67c-6.6,2-13.8,4-19.3,5.5l-1.5-6.2c2.1-0.5,4.6-1,7.2-1.7V45.2h-6.5v-5.6h18.8v5.6h-6.4v18
			c2.3-0.6,4.6-1.2,6.9-1.8L436.8,67z M461.7,44.8c0,0,0,2,0,2.7c-0.6,20.3-1.2,27.6-3,30c-1.2,1.8-2.5,2.3-4.4,2.7
			c-1.7,0.2-4.4,0.2-7.2,0.1c-0.1-1.7-0.8-4.2-1.8-5.8c2.6,0.2,5.1,0.2,6.2,0.2c0.9,0,1.4-0.1,2-0.8c1.2-1.4,1.8-7.7,2.3-23.3H449
			c-0.8,13.4-3.8,23.9-14.7,30.5c-0.9-1.5-2.8-3.7-4.2-4.8c9.7-5.5,12.2-14.2,12.9-25.7h-6.8v-5.7h7c0-3.1,0-6.4,0-9.8h6.1
			c0,3.4,0,6.7-0.1,9.8H461.7z"/>
		<path class="st1" d="M484.5,72.1c0-2.8,2.2-5,5.2-5s5.2,2.1,5.2,5c0,2.9-2.2,4.9-5.2,4.9S484.5,75,484.5,72.1z M485.3,46.6
			l-0.2-7.5h9.2l-0.2,7.5l-1.8,17.1h-5.2L485.3,46.6z"/>
	</g>
</g>
</svg>
