<?xml version="1.0" encoding="utf-8"?>
<!-- Generator: Adobe Illustrator 25.2.1, SVG Export Plug-In . SVG Version: 6.00 Build 0)  -->
<svg version="1.1" id="レイヤー_1" xmlns="http://www.w3.org/2000/svg" xmlns:xlink="http://www.w3.org/1999/xlink" x="0px"
	 y="0px" viewBox="0 0 718.1 114.5" style="enable-background:new 0 0 718.1 114.5;" xml:space="preserve">
<style type="text/css">
	.st0{fill:#D90060;}
	.st1{fill:#FFFFFF;}
</style>
<path class="st0" d="M672.9,114.5H45.2C20.2,114.5,0,94.3,0,69.3l0-24.1C0,20.2,20.2,0,45.2,0l627.7,0c25,0,45.2,20.2,45.2,45.2
	v24.1C718.1,94.3,697.8,114.5,672.9,114.5z"/>
<g>
	<g>
		<path class="st1" d="M158.6,38.2c-0.1,1.1-0.1,2.2-0.1,3.8v16.9c0,1.2,0,3.2,0.1,4.4h-7.4c0-1,0.2-2.9,0.2-4.4V42
			c0-0.9-0.1-2.7-0.2-3.8H158.6z M181.7,37.7c-0.1,1.4-0.2,3-0.2,5v9.9c0,10.8-2.1,15.4-5.8,19.5c-3.3,3.7-8.5,6.1-12.2,7.3
			l-5.3-5.5c5-1.1,9.2-3,12.3-6.3c3.4-3.8,4.1-7.5,4.1-15.3v-9.5c0-2-0.1-3.6-0.3-5H181.7z"/>
		<path class="st1" d="M216.5,65.3c8.5-5.1,15.1-12.7,18.2-19.5l3.9,7.1c-3.8,6.8-10.5,13.7-18.5,18.5c-5.1,3.1-11.5,5.9-18.6,7.1
			l-4.2-6.6C205.1,70.7,211.6,68.2,216.5,65.3z M216.5,49.1l-5.1,5.3c-2.6-2.8-8.9-8.3-12.5-10.8l4.7-5
			C207.1,40.9,213.6,46.1,216.5,49.1z"/>
		<path class="st1" d="M286.5,45.4c-0.5,1-1.2,2.4-1.6,3.6c-1.4,4.5-4.2,11.1-8.7,16.7c-4.8,5.8-10.8,10.4-20.2,14.1l-5.9-5.3
			c10.3-3,15.8-7.4,20.2-12.4c3.4-3.9,6.3-9.9,7.1-13.7h-14.1c-3.4,4.4-7.7,8.8-12.6,12.1l-5.6-4.2c8.8-5.4,13.1-11.8,15.6-16.1
			c0.8-1.2,1.8-3.6,2.2-5.2l7.3,2.4c-1.2,1.8-2.5,4-3.1,5.1l-0.1,0.2H277c1.6,0,3.2-0.2,4.4-0.6L286.5,45.4z"/>
		<path class="st1" d="M316.7,69.3c0.1-1.5,0.1-3.8,0.2-5.9c-3.6,2-5.7,3.9-5.7,6.4c0,2.8,2.4,3.5,7.2,3.5c4.2,0,9.7-0.5,14.1-1.5
			l-0.2,6.5c-3.3,0.4-9.4,0.8-14,0.8c-7.8,0-13.6-1.9-13.6-8.3c0-6.3,6-10.3,11.7-13.2c-0.8-1.2-2.1-1.7-3.5-1.7
			c-2.8,0-5.9,1.6-7.8,3.4c-1.5,1.5-2.9,3.3-4.6,5.5l-5.3-4c5.2-4.8,8.7-9.2,10.9-13.6h-0.6c-2,0-5.7-0.1-8.4-0.3v-5.8
			c2.5,0.4,6.2,0.6,8.7,0.6h2.4c0.6-2.2,0.9-4.3,1-5.7l6.5,0.5c-0.2,1.2-0.6,2.9-1.2,4.9c4.6-0.2,9.7-0.6,14-1.5l0,5.8
			c-4.8,0.7-10.9,1.1-16.2,1.3c-0.8,1.8-1.8,3.6-2.9,5c1.3-0.7,4-1,5.6-1c3,0,5.5,1.3,6.6,3.9c2.6-1.2,4.7-2.1,6.7-3
			c1.9-0.9,3.7-1.7,5.5-2.6l2.5,5.8c-1.6,0.4-4.2,1.4-5.9,2.1c-2.2,0.9-5,2-8.1,3.4c0.1,2.8,0.2,6.4,0.2,8.7H316.7z"/>
		<path class="st1" d="M377.9,77.6c0-0.8,0-1.7,0-2.6h-22.8c-2,0-4.8,0.2-6.5,0.3v-7.2c1.8,0.2,4,0.3,6.2,0.3H378V47.8h-22.5
			c-2.1,0-4.8,0.1-6.2,0.2v-7c1.9,0.2,4.5,0.3,6.2,0.3h25.2c1.5,0,3.5,0,4.4-0.1c0,1.2-0.2,3.2-0.2,4.6v25.9c0,1.8,0.1,4.4,0.2,5.9
			H377.9z"/>
		<path class="st1" d="M406.5,52.8c5.9-1.4,12.9-3.6,17.3-5.6c1.6-0.6,3.1-1.3,4.8-2.3c-0.9-1.1-1.5-2.5-1.5-4c0-3.3,2.7-6,6-6
			c3.3,0,6,2.7,6,6c0,3.3-2.7,6-6,6c-1.2,0-2.3-0.4-3.2-0.9l2,4.9c-2,0.8-4.2,1.8-5.9,2.4c-5,2-13.1,4.5-19.6,6.1v9.3
			c0,2.2,1,2.7,3.3,3.2c1.5,0.2,3.5,0.3,5.8,0.3c5.2,0,13.3-0.6,17.4-1.8v7.3c-4.7,0.7-12.3,1-17.8,1c-3.3,0-6.3-0.2-8.4-0.6
			c-4.3-0.8-6.8-3.2-6.8-7.5V43.4c0-1.1-0.2-3.7-0.4-5.2h7.4c-0.2,1.6-0.4,3.8-0.4,5.2V52.8z M436,41c0-1.6-1.3-2.9-2.9-2.9
			c-1.6,0-2.9,1.3-2.9,2.9s1.3,2.9,2.9,2.9C434.7,43.9,436,42.6,436,41z"/>
		<path class="st1" d="M446.1,53.4c1.8,0.1,5.5,0.3,8.1,0.3H481c2.3,0,4.6-0.2,5.9-0.3v7.9c-1.2-0.1-3.8-0.2-5.9-0.2h-26.9
			c-2.8,0-6.2,0.1-8.1,0.2V53.4z"/>
		<path class="st1" d="M538,48c-3-0.1-7.7-0.2-14.4-0.2c0.1,2.5,0.1,5.2,0.1,7.4c1.2,1.9,1.8,4.2,1.8,6.9c0,6.5-3.8,14.7-15.9,18.1
			l-5.2-5.3c5-1.1,9.4-2.7,12.1-5.7c-0.7,0.1-1.5,0.2-2.2,0.2c-3.8,0-8.6-3.1-8.6-9.1c0-5.6,4.5-9.3,9.9-9.3c0.7,0,1.3,0,2,0.1
			l-0.1-3.3c-7.5,0.1-15.2,0.4-21.3,0.8l-0.2-6c5.7,0,14.7-0.2,21.3-0.4c0-0.6,0-1.1,0-1.5c-0.1-1.6-0.2-3.5-0.5-4.3h7.2
			c-0.1,0.8-0.3,3.5-0.3,4.2c0,0.4,0,0.9,0,1.5c5,0,11.8,0,14.4,0L538,48z M515.5,63.8c2,0,3.9-1.5,3.2-5.9
			c-0.7-1.2-1.8-1.8-3.2-1.8c-1.9,0-3.8,1.3-3.8,3.9C511.7,62.4,513.5,63.8,515.5,63.8z"/>
		<path class="st1" d="M580.2,42.2c-1.2,0.8-2.4,1.5-3.5,2.3c-2.7,1.9-7.9,6.2-11,8.8c1.7-0.5,3.1-0.6,4.7-0.6
			c8.4,0,14.8,5.3,14.8,12.5c0,7.8-6,14-17.9,14c-6.9,0-12.1-3.2-12.1-8.1c0-4,3.7-7.7,8.9-7.7c6.1,0,9.8,3.8,10.5,8.5
			c2.7-1.5,4.1-3.8,4.1-6.8c0-4.5-4.5-7.5-10.3-7.5c-7.6,0-12.6,4.1-17.9,10.1l-4.5-4.6c3.5-2.9,9.5-7.9,12.4-10.3
			c2.8-2.3,7.9-6.5,10.4-8.6c-2.6,0.1-9.4,0.4-12,0.6c-1.3,0-2.9,0.2-4,0.4l-0.2-6.5c1.4,0.1,3.1,0.2,4.5,0.2c2.6,0,13.2-0.2,16-0.5
			c2.1-0.2,3.2-0.4,3.8-0.5L580.2,42.2z M569,73.4c-0.3-3.2-2.1-5.3-4.8-5.3c-1.9,0-3.1,1.1-3.1,2.3c0,1.9,2.1,3.1,5,3.1
			C567.1,73.5,568.1,73.5,569,73.4z"/>
	</g>
</g>
</svg>
