<?xml version="1.0" encoding="utf-8"?>
<!-- Generator: Adobe Illustrator 25.2.1, SVG Export Plug-In . SVG Version: 6.00 Build 0)  -->
<svg version="1.1" id="レイヤー_1" xmlns="http://www.w3.org/2000/svg" xmlns:xlink="http://www.w3.org/1999/xlink" x="0px"
	 y="0px" viewBox="0 0 405.3 103.6" style="enable-background:new 0 0 405.3 103.6;" xml:space="preserve">
<style type="text/css">
	.st0{fill:#D90060;}
	.st1{fill:#FFFFFF;}
</style>
<path class="st0" d="M51.8,103.6h301.7c28.6,0,51.8-23.2,51.8-51.8l0,0c0-28.6-23.2-51.8-51.8-51.8H51.8C23.2,0,0,23.2,0,51.8l0,0
	C0,80.4,23.2,103.6,51.8,103.6z"/>
<path class="st1" d="M39.8,37.7L25.7,51.8c-0.1,0-0.1,0.1,0,0.2l14.1,14.1c1.3,1.3,1.7,3.5,0.6,5c-1.4,2-4.2,2.2-5.8,0.5l-17-17
	c-1.5-1.5-1.5-4,0-5.6l17-17c1.6-1.6,4.4-1.5,5.8,0.5C41.4,34.2,41.1,36.4,39.8,37.7z"/>
<g>
	<path class="st1" d="M111.1,59.2c4.1,3.5,10.1,6.4,15.8,7.9c-1.3,1.2-3.1,3.5-3.9,4.9c-5.9-2-12-5.8-16.4-10.2v11.1h-5.9v-11
		c-4.4,4.6-10.4,8.4-16.3,10.5c-0.9-1.4-2.6-3.6-3.8-4.8c5.7-1.6,11.7-4.7,15.8-8.3H81.8v-5.2h19V50h5.9v4.1h19.1v5.2h-14.7V59.2z
		 M118.8,32.6c-2.2,4.3-5.4,7.7-9.3,10.6c5,1.9,10.8,3.2,17.1,3.9c-1.2,1.3-2.7,3.8-3.5,5.2c-7.3-1-13.8-2.9-19.3-5.6
		c-5.9,3.1-12.8,5.2-19.9,6.5c-0.5-1.6-1.8-4-2.7-5.2c5.9-0.8,11.8-2.4,16.9-4.6c-1.9-1.3-3.6-2.8-5.2-4.5c-2,1.5-4.3,3-6.8,4.4
		c-0.9-1.4-2.8-3.4-4.2-4.4c7.3-3.3,12-8,14.5-12.4l6.5,1.1c-0.6,1-1.2,2-1.9,2.9h12.6l1-0.2L118.8,32.6z M97.1,35.6
		c1.8,1.8,4,3.5,6.5,4.9c2.3-1.4,4.4-3.1,6-4.9H97.1z"/>
	<path class="st1" d="M146,28.6c-1.3,3.5-3,7.1-4.9,10.5v33.7h-5.6V47.9c-1,1.2-2,2.5-3,3.6c-0.5-1.5-2.2-4.6-3.2-6.1
		c4.4-4.5,8.6-11.5,11-18.5L146,28.6z M176,56.2h-12.7v16.6h-5.9V56.2H144v-5.7h13.4V42h-6c-0.9,2.4-2,4.6-3.1,6.4
		c-1.1-0.8-3.7-2.2-5.1-2.8c2.7-3.9,4.7-10.1,5.8-16.2l5.7,1.2c-0.4,1.9-0.9,3.8-1.4,5.7h4.1v-9h5.9v9h10.4V42h-10.4v8.5H176
		L176,56.2L176,56.2z"/>
	<path class="st1" d="M201.2,64.8c1.9-0.2,3.3-0.5,4.6-0.8c6.3-1.5,11.1-6,11.1-13.1c0-6.8-3.7-11.8-10.2-13
		c-0.7,4.2-1.5,8.7-2.9,13.3c-2.9,9.9-7.2,15.9-12.5,15.9c-5.4,0-10-6-10-14.3c0-11.3,9.9-21,22.6-21c12.1,0,19.8,8.5,19.8,19.2
		c0,10.3-6.3,17.6-18.7,19.5L201.2,64.8z M197.4,49.9c1.1-3.6,2-7.8,2.6-11.9c-8.1,1.7-12.4,8.8-12.4,14.2c0,5,2,7.4,3.8,7.4
		C193.4,59.6,195.4,56.6,197.4,49.9z"/>
	<path class="st1" d="M267.9,55.1c-2.2,4-5.4,7.1-9.3,9.6c4.8,1.4,10.5,2.3,16.9,2.6c-1.2,1.4-2.7,3.9-3.4,5.5
		c-8-0.6-14.7-2.1-20-4.7c-6,2.5-13.1,4-20.4,4.9c-0.5-1.5-1.7-4-2.8-5.3c6.3-0.5,12.3-1.4,17.4-3.1c-1.7-1.3-3.2-2.8-4.6-4.4
		c-2.2,1.4-4.8,2.7-7.6,3.8c-0.7-1.4-2.5-3.5-3.7-4.4c5.6-1.9,9.8-4.4,12.6-7c-0.9-1.2-2.9-3.1-4.2-4c6-3.6,6.8-8.5,6.9-12.3h-15.4
		v-5.4h18.8v-4.3h6v4.3h19v5.4h-12.7v8.9c0,2.5-0.4,3.9-2.1,4.8c-1.7,0.8-4,0.8-7,0.8c-0.2-1.5-0.9-3.7-1.6-5.1c1.7,0,3.7,0,4.2,0
		c0.6,0,0.7-0.1,0.7-0.6v-8.8h-4.5c0,4-0.5,8.9-4.1,13l5.2,1c-0.6,0.8-1.2,1.6-1.8,2.4H263l1-0.2L267.9,55.1z M242.1,39.4
		c-2,3.9-5.3,7.8-8.7,10.2c-1.1-1.1-3-2.7-4.1-3.4c3.1-2,6-5.4,7.3-8.3L242.1,39.4z M246.1,57.4c1.7,1.9,3.8,3.5,6.3,4.9
		c2.6-1.3,4.9-2.9,6.7-4.9H246.1z M267.3,37.7c2.8,2.8,6.3,6.6,7.9,9.3l-4.9,3c-1.4-2.7-4.8-6.7-7.5-9.7L267.3,37.7z"/>
	<path class="st1" d="M304.4,57.4c-0.6,2.5-1.8,4.9-3.6,6.9c6.4,2.1,14.6,2.3,24.6,2.3c-1.1,1.3-2.2,3.8-2.5,5.8
		c-10.7-0.2-19.9-1-26.9-4.1c-3.3,1.9-7.7,3.5-13.4,4.6c-0.7-1.4-2.3-3.9-3.6-5.2c4.8-0.7,8.4-1.7,11.2-2.9
		c-1.9-1.5-3.6-3.4-5.1-5.5l4.5-1.8h-5.2V37.1h14.7v-2.9h-19V29h43.4v5.2h-18.2v2.9h15.1v20.4L304.4,57.4L304.4,57.4z M289.8,44.9
		h9.1v-3.2h-9.1V44.9z M289.8,52.6h9.1c0-0.5,0-1.1,0-1.6v-1.6h-9.1V52.6z M290.3,57.4c1.4,1.8,3,3.2,4.8,4.3
		c1.4-1.3,2.3-2.7,2.9-4.3H290.3z M314.4,49.3h-9.3v1.6c0,0.5,0,1,0,1.6h9.4L314.4,49.3L314.4,49.3z M305.1,41.8V45h9.3v-3.2H305.1z
		"/>
</g>
</svg>
