<svg viewBox="0 0 405.3 103.6" xmlns="http://www.w3.org/2000/svg"><path d="M202.917 51.244s-1.2 2.5 0 0z" fill="#fff"/><path d="M353.5 103.6H51.8C23.2 103.6 0 80.4 0 51.8 0 23.2 23.2 0 51.8 0h301.7c28.6 0 51.8 23.2 51.8 51.8 0 28.6-23.2 51.8-51.8 51.8z" fill="#d90060"/><g aria-label="スワイプに戻る" style="line-height:1.25;-inkscape-font-specification:'Noto Sans JP, Normal'" font-size="50.667" font-family="Noto Sans JP" fill="#fff"><path d="M68.738 36.828l-4.154-3.09c-1.014.354-3.04.658-5.22.658H41.48c-1.52 0-4.611-.152-5.98-.355v7.195c1.065-.05 3.852-.355 5.98-.355h17.176c-1.115 3.598-4.206 8.614-7.55 12.414-4.762 5.32-12.616 11.501-20.773 14.541l5.219 5.472c6.94-3.293 13.68-8.563 19.05-14.237 4.763 4.61 9.475 9.778 12.768 14.338l5.776-5.016c-2.99-3.648-9.12-10.133-14.136-14.49 3.395-4.56 6.232-9.982 7.955-13.934.456-1.013 1.368-2.584 1.773-3.141zM122.85 37.233l-4.864-3.09c-1.368.253-3.09.354-4.813.354H88.954c-2.381 0-4.61-.101-6.232-.202.152 1.317.253 2.888.253 4.256v10.69c0 1.368-.1 2.584-.253 4.155h7.448a50.255 50.255 0 01-.203-4.155V40.78h24.32c-.506 5.472-2.077 11.096-4.61 15.2-4.003 6.333-11.806 10.539-18.646 12.21l5.675 5.777c8.107-2.838 14.997-7.904 19.203-14.542 3.952-6.13 5.117-13.477 6.03-18.797.151-.71.607-2.635.911-3.395zM130.957 51.47l3.192 6.385c6.232-1.824 12.666-4.56 17.885-7.296v16.213c0 2.23-.152 5.421-.355 6.637h8.006c-.355-1.266-.456-4.408-.456-6.637v-20.47c4.914-3.242 9.778-7.194 13.63-10.994l-5.473-5.219c-3.293 4.003-9.07 9.07-14.288 12.312-5.624 3.446-13.072 6.739-22.141 9.07zM219.218 34.041a2.94 2.94 0 012.939-2.938c1.57 0 2.888 1.317 2.888 2.938 0 1.571-1.318 2.888-2.888 2.888-1.622 0-2.939-1.317-2.939-2.888zm-3.141 0c0 .355.05.659.101.963a21.862 21.862 0 01-2.888.203h-23.459c-1.672 0-4.56-.203-6.029-.406v7.144c1.267-.101 3.699-.202 6.03-.202h23.56c-.66 4.357-2.585 10.082-5.929 14.288-4.104 5.168-9.829 9.576-19.861 11.906l5.523 6.08c9.018-2.938 15.808-7.954 20.368-14.034 4.256-5.624 6.434-13.478 7.6-18.443.152-.456.253-.963.405-1.52.203.05.456.05.659.05 3.293 0 6.029-2.735 6.029-6.029 0-3.344-2.736-6.08-6.03-6.08-3.343 0-6.08 2.736-6.08 6.08zM251.847 35.764v6.485c6.384.608 15.555.558 21.787 0v-6.536c-5.472.659-15.555.912-21.787.051zm4.054 21.635l-5.827-.558c-.557 2.584-.861 4.611-.861 6.587 0 5.219 4.205 8.31 12.92 8.31 5.725 0 9.778-.355 13.072-.963l-.102-6.84c-4.458.912-8.208 1.317-12.717 1.317-5.168 0-7.093-1.368-7.093-3.597 0-1.368.202-2.584.608-4.256zm-11.856-25.03l-7.094-.608c-.05 1.622-.354 3.547-.506 4.966-.558 3.901-2.128 12.464-2.128 20.064 0 6.89.962 13.072 1.976 16.568l5.877-.406c-.05-.709-.101-1.52-.101-2.077 0-.507.1-1.621.253-2.381.557-2.686 2.23-8.208 3.648-12.414l-3.141-2.482c-.71 1.672-1.52 3.445-2.28 5.168-.152-1.014-.203-2.331-.203-3.294 0-5.066 1.773-15.2 2.432-18.594.203-.912.861-3.446 1.267-4.51zM326.885 30.9h-42.966v5.421h42.966zm-34.15 25.283c.152-1.52.254-3.04.304-4.459h11.958c-.102 1.57-.203 3.09-.355 4.459zm25.84-12.87v3.851H293.09v-3.85zm8.41 18.088v-5.218h-16.162c.152-1.419.304-2.888.355-4.459h13.325V38.703h-37.442v9.576c0 6.84-.507 16.72-6.08 23.509 1.52.608 4.205 2.179 5.32 3.192 2.989-3.75 4.712-8.664 5.674-13.579h11.45c-1.722 4.51-5.42 7.448-13.983 9.272 1.216 1.166 2.736 3.496 3.243 4.966 8.714-2.128 13.224-5.422 15.656-10.184 3.394 5.573 8.562 8.714 17.074 10.082.71-1.672 2.28-4.154 3.547-5.421-8.613-.912-13.883-3.597-16.67-8.715zM350.242 65.201c0-1.266 1.216-2.432 3.141-2.432 2.736 0 4.61 2.128 4.915 5.422-.912.101-1.875.152-2.939.152-3.04 0-5.117-1.267-5.117-3.142zm-8.614-32.629l.203 6.587a82.763 82.763 0 014.155-.406c2.685-.152 9.677-.456 12.261-.506-2.483 2.178-7.752 6.434-10.59 8.765-2.989 2.483-9.12 7.65-12.717 10.539l4.611 4.762c5.421-6.181 10.488-10.285 18.24-10.285 5.979 0 10.539 3.09 10.539 7.65 0 3.091-1.419 5.422-4.206 6.891-.709-4.813-4.509-8.664-10.792-8.664-5.37 0-9.069 3.8-9.069 7.904 0 5.067 5.32 8.31 12.363 8.31 12.261 0 18.341-6.334 18.341-14.339 0-7.397-6.536-12.768-15.15-12.768-1.62 0-3.14.152-4.813.557 3.192-2.533 8.512-6.992 11.248-8.917 1.166-.861 2.382-1.57 3.547-2.33l-3.293-4.51c-.608.203-1.774.355-3.85.557-2.889.254-13.732.456-16.417.456-1.419 0-3.192-.05-4.61-.253z"/></g></svg>