<?xml version="1.0" encoding="utf-8"?>
<!-- Generator: Adobe Illustrator 25.2.1, SVG Export Plug-In . SVG Version: 6.00 Build 0)  -->
<svg version="1.1" id="レイヤー_1" xmlns="http://www.w3.org/2000/svg" xmlns:xlink="http://www.w3.org/1999/xlink" x="0px"
	 y="0px" viewBox="0 0 405.3 103.6" style="enable-background:new 0 0 405.3 103.6;" xml:space="preserve">
<style type="text/css">
	.st0{fill:#D90060;}
	.st1{fill:#FFFFFF;}
</style>
<path class="st0" d="M353.5,103.6H51.8C23.2,103.6,0,80.4,0,51.8l0,0C0,23.2,23.2,0,51.8,0h301.7c28.6,0,51.8,23.2,51.8,51.8l0,0
	C405.3,80.4,382.1,103.6,353.5,103.6z"/>
<g>
	<path class="st1" d="M79.8,57.5c-0.5,4.6-1.5,9.6-3,12.8c-1-0.6-3.2-1.7-4.5-2.1c1.4-2.9,2.2-7.3,2.6-11.5L79.8,57.5z M89.3,43.6
		c2,3.3,4,7.6,4.6,10.5l-4.5,2.1c-0.1-0.8-0.4-1.7-0.7-2.7l-2.8,0.2v20.4h-5.2v-20c-2.7,0.1-5.1,0.4-7.3,0.5l-0.5-5.1l3.7-0.1
		c0.7-0.9,1.5-2,2.3-3.1c-1.4-2.1-3.9-4.8-5.9-6.8l2.8-4.1c0.4,0.4,0.8,0.7,1.2,1c1.4-2.7,2.8-6,3.6-8.6l5.2,1.8
		c-1.8,3.4-3.8,7.2-5.6,10c0.6,0.7,1.2,1.4,1.7,2.1c1.8-2.8,3.4-5.6,4.6-8.1l5,2.1c-2.8,4.4-6.2,9.4-9.5,13.4l5-0.2
		c-0.5-1.1-1.1-2.3-1.7-3.4L89.3,43.6z M90.3,56.3c1.3,2.9,2.6,6.8,3.2,9.3l-4.6,1.6c-0.4-2.5-1.7-6.5-2.9-9.6L90.3,56.3z
		 M108.4,39.4v5.4h9.7v5.4H93.3v-5.4h9.1v-5.4H92V34h10.4v-6.4h6V34h10.8v5.4H108.4z M94.8,54.3h22.1v19.5h-5.7v-2h-11v2.1h-5.4
		L94.8,54.3L94.8,54.3z M100.3,59.6v7h11v-7H100.3z"/>
	<path class="st1" d="M153.2,59c4.4,3.5,10.4,6.7,16,8.3c-1.3,1.2-3.1,3.5-4,5c-5.7-2.2-11.8-6-16.4-10.5V74h-6.2V62.1
		c-4.6,4.6-10.6,8.4-16.5,10.6c-0.9-1.4-2.7-3.7-4-4.9c5.9-1.7,12-5,16.2-8.7h-14.6v-5.5h19v-3h-14.2V29.9h34.8v20.7h-14.4v2.9h18.9
		v5.4L153.2,59L153.2,59z M134.7,38h8v-3.2h-8V38z M142.6,45.7v-3.1h-8v3.2h8V45.7z M156.7,34.8h-7.9V38h7.9V34.8z M156.7,42.6h-7.9
		v3.2h7.9V42.6z"/>
	<path class="st1" d="M195.4,62.5c0.1-1.4,0.1-3.7,0.2-5.8c-3.6,2-5.6,3.9-5.6,6.3c0,2.7,2.3,3.5,7.1,3.5c4.2,0,9.6-0.5,13.9-1.4
		l-0.2,6.4c-3.3,0.4-9.3,0.8-13.9,0.8c-7.7,0-13.5-1.8-13.5-8.2c0-6.2,5.9-10.2,11.5-13.1c-0.8-1.2-2.1-1.7-3.4-1.7
		c-2.8,0-5.8,1.6-7.7,3.4c-1.5,1.5-2.9,3.3-4.6,5.4l-5.2-3.9c5.1-4.8,8.6-9.1,10.8-13.5h-0.6c-2,0-5.6-0.1-8.3-0.4v-5.7
		c2.5,0.4,6.1,0.5,8.6,0.5h2.4c0.6-2.2,0.9-4.2,1-5.6l6.4,0.5c-0.2,1.2-0.6,2.9-1.2,4.9c4.6-0.2,9.6-0.6,13.9-1.4v5.7
		c-4.7,0.7-10.7,1.1-16,1.3c-0.8,1.7-1.8,3.5-2.8,5c1.3-0.6,3.9-1,5.5-1c3,0,5.5,1.3,6.5,3.8c2.5-1.2,4.6-2,6.6-2.9
		c1.9-0.8,3.6-1.7,5.4-2.5l2.5,5.7c-1.6,0.4-4.2,1.4-5.8,2.1c-2.2,0.8-5,1.9-8,3.3c0,2.7,0.1,6.3,0.2,8.6L195.4,62.5L195.4,62.5z"/>
	<path class="st1" d="M264.4,63c-1.3-1.1-2.7-2.3-4.2-3.4c-2.2,5.5-5.9,9.9-12.4,13.3l-5.2-4.3c7.4-3.2,10.8-7.9,12.5-12.3
		c-3.5-1.9-7.3-3.4-11.5-4c-1.8,4.2-4,9.1-5.7,11.8c-1.9,3-4.3,4.3-7.6,4.3c-4.3,0-7.5-3-7.5-7.9c0-7.6,6.9-13.4,16.7-13.9
		c1.4-3.2,2.8-6.5,3.9-8.8c-1.9,0-6.1,0.2-8.4,0.4c-1,0-2.8,0.2-4,0.5l-0.2-6.3c1.3,0.1,3,0.2,4.1,0.2c2.8,0,8-0.2,10.3-0.4
		c1.2-0.1,2.5-0.4,3.3-0.7l3.9,3.1c-0.7,0.7-1.2,1.4-1.6,2.1c-1.3,2.1-3.1,6.3-4.8,10.5c3.8,0.6,7.4,1.8,10.5,3.2
		c0-0.6,0.1-1.1,0.1-1.7c0.1-1.9,0.1-3.8,0-5.4L263,44c-0.2,3.3-0.5,6.3-0.9,9.1c2,1.1,3.8,2.3,5.2,3.3L264.4,63z M236.8,52.3
		c-5.5,0.8-8.4,4.2-8.4,7.2c0,1.4,0.8,2.3,1.8,2.3s1.7-0.5,2.6-1.7C234.1,58.3,235.5,55.3,236.8,52.3z"/>
	<path class="st1" d="M307.7,35.6c-1.2,0.7-2.3,1.5-3.4,2.2c-2.6,1.8-7.8,6.2-10.8,8.7c1.6-0.5,3-0.5,4.6-0.5
		c8.3,0,14.7,5.2,14.7,12.3c0,7.7-5.9,13.9-17.7,13.9c-6.8,0-12-3.1-12-8c0-4,3.6-7.6,8.8-7.6c6,0,9.7,3.7,10.5,8.4
		c2.7-1.4,4-3.7,4-6.7c0-4.4-4.5-7.4-10.1-7.4c-7.5,0-12.4,4-17.7,10l-4.5-4.6c3.5-2.8,9.4-7.8,12.3-10.2c2.7-2.3,7.8-6.4,10.2-8.5
		c-2.5,0-9.3,0.4-11.8,0.5c-1.3,0-2.9,0.2-4,0.4l-0.2-6.4c1.4,0.1,3.1,0.2,4.5,0.2c2.6,0,13.1-0.2,15.8-0.5c2-0.1,3.2-0.4,3.8-0.5
		L307.7,35.6z M296.6,66.5c-0.3-3.2-2.1-5.2-4.8-5.2c-1.8,0-3,1.1-3,2.3c0,1.8,2.1,3.1,5,3.1C294.8,66.6,295.7,66.6,296.6,66.5z"/>
</g>
<path class="st1" d="M365.5,37.6l14.1,14.1c0,0,0,0.1,0,0.2L365.5,66c-1.3,1.3-1.7,3.5-0.6,5c1.4,2,4.2,2.2,5.8,0.5l17-17
	c1.5-1.5,1.5-4,0-5.6l-17-17c-1.6-1.6-4.5-1.5-5.8,0.5C363.8,34.2,364.2,36.3,365.5,37.6z"/>
</svg>
