<?xml version="1.0" encoding="utf-8"?>
<!-- Generator: Adobe Illustrator 25.2.1, SVG Export Plug-In . SVG Version: 6.00 Build 0)  -->
<svg version="1.1" id="レイヤー_1" xmlns="http://www.w3.org/2000/svg" xmlns:xlink="http://www.w3.org/1999/xlink" x="0px"
	 y="0px" viewBox="0 0 341.7 357.8" style="enable-background:new 0 0 341.7 357.8;" xml:space="preserve">
<style type="text/css">
	.st0{opacity:0.65;fill:#D90060;enable-background:new    ;}
	.st1{fill:#D90060;}
	.st2{fill:#FFFFFF;}
</style>
<path class="st0" d="M0,309.1c49.5,30.9,108,48.7,170.7,48.7c62.8,0,121.4-17.9,171-48.9V116.3H0V309.1z"/>
<path class="st1" d="M0,148.9c49.5,23.8,108,37.6,170.7,37.6c62.8,0,121.4-13.8,171-37.8V0H0V148.9z"/>
<g>
	<path class="st2" d="M113.5,81.8l6.9,11.5h-4.3L109.6,82h-1.5l-1.4,11.3h-4.1l3.4-27.4h5.4c1.8,0,3.1,0.2,4.2,0.5
		c1,0.3,1.9,0.8,2.7,1.6c1.4,1.5,2.1,3.4,2.1,5.7C120.4,77.9,118.1,80.6,113.5,81.8z M109.7,69.7l-1.1,8.8h1.9
		c1.4,0,2.4-0.1,3.1-0.4s1.3-0.7,1.8-1.3c0.7-0.9,1-1.9,1-3.1c0-1.4-0.4-2.4-1.2-3c-0.8-0.6-2-1-3.8-1H109.7z"/>
	<path class="st2" d="M127.8,86.4c0,1.2,0.4,2.2,1.3,3s2,1.2,3.3,1.2c1.8,0,3.2-0.7,4.2-2.1l2.9,1.6c-1,1.4-2.1,2.3-3.1,2.9
		c-1.1,0.6-2.5,0.8-4.1,0.8c-2.6,0-4.6-0.8-6.2-2.3s-2.3-3.6-2.3-6.1c0-2.7,0.9-4.9,2.5-6.7c1.7-1.8,3.8-2.7,6.4-2.7
		c2.5,0,4.4,0.8,5.9,2.4s2.2,3.8,2.2,6.5c0,0.3,0,0.7,0,1.4L127.8,86.4L127.8,86.4z M136.8,83.2c-0.4-2.6-1.8-3.9-4.3-3.9
		c-2.3,0-3.8,1.3-4.5,3.9H136.8z"/>
	<path class="st2" d="M156.2,78.4l-2.2,2.2c-1-0.9-2-1.4-2.9-1.4c-0.6,0-1.1,0.2-1.5,0.5s-0.6,0.8-0.6,1.2c0,0.5,0.2,0.9,0.5,1.2
		c0.3,0.3,1,0.8,2.1,1.4c1.5,0.8,2.5,1.6,3,2.3c0.5,0.7,0.8,1.6,0.8,2.7c0,1.6-0.5,2.9-1.6,3.8c-1.1,1-2.6,1.4-4.4,1.4
		c-2.5,0-4.5-1.1-6.1-3.3l2.6-1.8c1,1.3,2.2,1.9,3.4,1.9c0.7,0,1.2-0.2,1.6-0.5s0.6-0.8,0.6-1.4c0-0.5-0.2-0.9-0.5-1.2
		c-0.2-0.1-0.5-0.4-0.9-0.6c-0.4-0.3-1-0.6-1.7-1c-1.2-0.7-2.1-1.4-2.6-2c-0.5-0.7-0.7-1.5-0.7-2.5c0-1.5,0.6-2.8,1.7-3.8
		s2.5-1.5,4.2-1.5C152.9,76,154.6,76.9,156.2,78.4z"/>
	<path class="st2" d="M166.5,63.4l-2.4,19.7l7-6.5h5.2l-8.8,7.6l7,9.1h-4.7l-6.1-8l-1,8h-3.9l3.7-30L166.5,63.4L166.5,63.4z"/>
	<path class="st2" d="M183.6,76.6l-2.1,16.7h-3.9l2.1-16.7H183.6z M184.8,68.7c0,0.6-0.2,1.1-0.6,1.5s-0.9,0.6-1.5,0.6
		s-1.1-0.2-1.5-0.6c-0.4-0.5-0.6-1-0.6-1.5c0-0.6,0.2-1.1,0.6-1.5s0.9-0.6,1.5-0.6s1.1,0.2,1.5,0.7
		C184.6,67.5,184.8,68.1,184.8,68.7z"/>
	<path class="st2" d="M193.1,76.6l-0.2,1.6c1.3-1.3,2.9-2,4.6-2c1,0,1.9,0.2,2.4,0.6c0.6,0.4,1.1,1.1,1.5,2.1
		c1.7-1.8,3.4-2.6,5.4-2.6c3.3,0,5,1.5,5,4.6c0,0.3,0,0.7-0.1,1.3c0,0.6-0.1,1.2-0.2,2.1l-1.1,9.2h-3.9l1.2-9.7
		c0.1-0.9,0.2-1.6,0.2-2c0-1.5-0.7-2.2-2.2-2.2c-0.6,0-1.1,0.1-1.5,0.3c-0.4,0.2-0.8,0.4-1.1,0.8s-0.5,0.8-0.8,1.4s-0.4,1.3-0.5,2
		l-1.1,9.3h-3.9l1.2-9.9c0.1-0.9,0.2-1.5,0.2-1.8c0-1.4-0.8-2.1-2.2-2.1c-2.2,0-3.5,1.5-3.8,4.5l-1.1,9.3h-3.9l2.1-16.7L193.1,76.6
		L193.1,76.6z"/>
	<path class="st2" d="M234.3,76.6l-2.1,16.7h-3.9l0.2-1.8c-1.7,1.5-3.4,2.2-5.2,2.2c-2.2,0-4-0.8-5.4-2.2c-1.4-1.5-2.1-3.5-2.1-5.8
		c0-2.8,0.8-5,2.4-6.8s3.7-2.6,6.2-2.6c1.2,0,2.2,0.2,3,0.6c0.9,0.4,1.7,1.1,2.6,2l0.3-2.2L234.3,76.6L234.3,76.6z M229.5,84.5
		c0-1.5-0.4-2.7-1.3-3.6s-2-1.4-3.3-1.4c-1.5,0-2.7,0.6-3.7,1.7c-1,1.2-1.5,2.6-1.5,4.3c0,1.5,0.4,2.7,1.2,3.6s1.9,1.4,3.2,1.4
		c1.4,0,2.7-0.6,3.7-1.8C229,87.5,229.5,86.1,229.5,84.5z"/>
</g>
</svg>
